<?xml version="1.0" encoding="utf-8"?>
<svg width="62" height="54" viewBox="219 223 62 54" xmlns="http://www.w3.org/2000/svg">
  <path d="M 260.262 224.216 C 259.706 224.184 259.14 224.162 258.564 224.162 C 255.203 224.162 244.167 224.772 240.499 232.234 C 239.336 232.412 238.144 232.638 236.907 232.94 C 229.169 234.838 220.134 239.966 220.134 248.181 C 220.134 249.139 220.335 250.086 220.531 250.885 C 222.124 257.392 233.302 267.441 242.398 274.726 C 243.288 275.44 244.972 276.043 246.074 276.043 C 248.344 276.043 250.359 274.798 251.209 272.871 L 251.717 271.72 C 252.393 270.187 253.167 268.436 253.964 266.564 C 254.897 267.523 256.288 268.357 257.603 268.357 C 259.091 268.357 260.988 267.93 263.783 264.767 C 271.045 256.542 279.701 245.323 279.701 238.573 C 279.701 228.779 269.23 224.717 260.262 224.216 Z M 249.959 270.943 L 249.45 272.095 C 248.834 273.495 247.31 274.121 246.074 274.121 C 245.462 274.121 244.201 273.708 243.599 273.227 C 231.071 263.193 223.541 255.096 222.397 250.428 C 222.228 249.739 222.055 248.934 222.055 248.181 C 222.055 241.079 230.302 236.538 237.365 234.808 C 240.173 234.118 242.781 233.769 245.114 233.769 C 249.322 233.769 256.626 234.772 258.271 241.483 C 258.45 242.211 258.564 243.331 258.564 244.338 C 258.564 251.47 253.178 263.66 249.959 270.943 Z M 262.342 263.494 C 260.06 266.079 258.715 266.435 257.603 266.435 C 256.797 266.435 255.555 265.652 254.945 264.762 L 254.806 264.557 C 257.629 257.747 260.486 249.774 260.486 244.338 C 260.486 243.172 260.352 241.904 260.139 241.027 C 258.687 235.108 253.351 231.848 245.114 231.848 C 244.394 231.848 243.646 231.887 242.882 231.949 C 246.616 226.547 255.68 226.083 258.564 226.083 C 259.104 226.083 259.635 226.104 260.154 226.133 C 263.098 226.299 277.779 227.672 277.779 238.573 C 277.779 243.371 272.297 252.222 262.342 263.494 Z" style="fill: rgb(255, 255, 255);"/>
  <path d="M 248.018 233.562 Z" style="stroke: black; fill: rgb(255, 255, 255);"/>
</svg>