<?xml version="1.0" encoding="utf-8"?>
<svg width="80.27099609375" height="58.019004821777344" viewBox="9.865 21.609 80.271 58.019" xmlns="http://www.w3.org/2000/svg">
  <path fill-rule="evenodd" clip-rule="evenodd" d="M79.867,42.317c5.307,0.066,9.869-4.412,9.953-9.769  c0.088-5.481-4.396-9.969-9.932-9.944c-5.475,0.024-9.75,4.327-9.744,9.805C70.15,37.884,74.438,42.25,79.867,42.317z   M88.873,68.319c-1.646-1.207-3.338-2.364-5.086-3.415c-7.148-4.291-14.729-6.572-23.156-4.865  C55.09,61.16,50.016,63.5,44.996,65.96c-10.295,5.046-19.699,4.351-28.237-1.145l-6.894,5.607  c11.537,7.823,24.331,9.206,37.413,3.422c3.33-1.472,6.572-3.145,9.957-4.47c4.275-1.676,8.695-2.412,13.313-1.352  c4.303,0.988,8.023,3.063,11.602,5.45l7.986-3.96C89.799,69.1,89.387,68.697,88.873,68.319z M31.557,64.766  c6.185,0.174,11.569-2.325,16.958-4.918c6.379-3.068,19.61-7.488,28.672-2.512c0,0-2.105-8.643-7.771-17.227  c-4.557-6.905-11.967-12.439-19.833-15.083c-10.166-3.417-23.186-1.188-25.985-0.472l0.284,4.073  c4.191-0.459,10.532-0.729,15.711,0.882c9.488,2.952,11.097,7.703,11.097,7.703L21.087,61.294  C23.59,63.379,28.522,64.68,31.557,64.766z" transform="matrix(1, 0, 0, 1, -7.105427357601002e-15, 0)" style="fill: rgb(238, 232, 213);"/>
</svg>